# xmcd
#
# Track frame offsets:
#	150
#	2405
#	17128
#	31837
#	46507
#	63839
#	65508
#	78031
#	92478
#	110539
#	112235
#	125461
#	141146
#	157658
#	173362
#	174870
#	188870
#	203618
#	221785
#
# Disc length: 3199 seconds
#
# Revision: 1
# Processed by: cddbd v1.5.1PL0 Copyright (c) Steve Scherf et al.
# Submitted via: audiograbber 1.83.01
#
DISCID=e20c7d13
DTITLE=Thales e Thiago - Universitario Acustico
DYEAR=1900
DGENRE=Sertanejo
TTITLE0=Apresentacao do Show com Cuiabano Lima
TTITLE1=Magia e Misterio
TTITLE2=Se Ainda Existe Amor
TTITLE3=Pout-Pourri(Noite de Tortura-Quebradas da Noite)
TTITLE4=Frevo Mulher
TTITLE5=Verso I Cuiabano Lima
TTITLE6=Cancao Para um Amor Distante 
TTITLE7=Quem Ama Perdoa
TTITLE8=Cowboy Desesperado
TTITLE9=Verso II Cuiabano Lima
TTITLE10=A Tabela
TTITLE11=Malicia de Mulher
TTITLE12=Esperando Voce Chegar
TTITLE13=Erros
TTITLE14=Verso III Cuiabano Lima
TTITLE15=Anunciacao
TTITLE16=Morena
TTITLE17=Esperando por Ela
TTITLE18=Pout-Pourri (Vida de Viajante - Esperando na Janela - Limpa Banco)
EXTD=
EXTT0=
EXTT1=
EXTT2=
EXTT3=
EXTT4=
EXTT5=
EXTT6=
EXTT7=
EXTT8=
EXTT9=
EXTT10=
EXTT11=
EXTT12=
EXTT13=
EXTT14=
EXTT15=
EXTT16=
EXTT17=
EXTT18=
PLAYORDER=
